<svg width="134" height="20" viewBox="0 0 134 20" fill="none" xmlns="http://www.w3.org/2000/svg">
<path d="M3.78906 9.47266H4.96094C6.10938 9.47266 6.95703 9.28125 7.50391 8.89844C8.05078 8.51562 8.32422 7.91406 8.32422 7.09375C8.32422 6.28125 8.04297 5.70312 7.48047 5.35938C6.92578 5.01562 6.0625 4.84375 4.89062 4.84375H3.78906V9.47266ZM3.78906 12.4258V19H0.15625V1.86719H5.14844C7.47656 1.86719 9.19922 2.29297 10.3164 3.14453C11.4336 3.98828 11.9922 5.27344 11.9922 7C11.9922 8.00781 11.7148 8.90625 11.1602 9.69531C10.6055 10.4766 9.82031 11.0898 8.80469 11.5352C11.3828 15.3867 13.0625 17.875 13.8438 19H9.8125L5.72266 12.4258H3.78906ZM15.5664 2.51172C15.5664 1.34766 16.2148 0.765625 17.5117 0.765625C18.8086 0.765625 19.457 1.34766 19.457 2.51172C19.457 3.06641 19.293 3.5 18.9648 3.8125C18.6445 4.11719 18.1602 4.26953 17.5117 4.26953C16.2148 4.26953 15.5664 3.68359 15.5664 2.51172ZM19.293 19H15.7188V5.89844H19.293V19ZM25.9023 12.4258C25.9023 13.7227 26.1133 14.7031 26.5352 15.3672C26.9648 16.0312 27.6602 16.3633 28.6211 16.3633C29.5742 16.3633 30.2578 16.0352 30.6719 15.3789C31.0938 14.7148 31.3047 13.7305 31.3047 12.4258C31.3047 11.1289 31.0938 10.1562 30.6719 9.50781C30.25 8.85938 29.5586 8.53516 28.5977 8.53516C27.6445 8.53516 26.957 8.85938 26.5352 9.50781C26.1133 10.1484 25.9023 11.1211 25.9023 12.4258ZM34.9609 12.4258C34.9609 14.5586 34.3984 16.2266 33.2734 17.4297C32.1484 18.6328 30.582 19.2344 28.5742 19.2344C27.3164 19.2344 26.207 18.9609 25.2461 18.4141C24.2852 17.8594 23.5469 17.0664 23.0312 16.0352C22.5156 15.0039 22.2578 13.8008 22.2578 12.4258C22.2578 10.2852 22.8164 8.62109 23.9336 7.43359C25.0508 6.24609 26.6211 5.65234 28.6445 5.65234C29.9023 5.65234 31.0117 5.92578 31.9727 6.47266C32.9336 7.01953 33.6719 7.80469 34.1875 8.82812C34.7031 9.85156 34.9609 11.0508 34.9609 12.4258ZM43.4336 16.3867C44.0586 16.3867 44.8086 16.25 45.6836 15.9766V18.6367C44.793 19.0352 43.6992 19.2344 42.4023 19.2344C40.9727 19.2344 39.9297 18.875 39.2734 18.1562C38.625 17.4297 38.3008 16.3438 38.3008 14.8984V8.58203H36.5898V7.07031L38.5586 5.875L39.5898 3.10938H41.875V5.89844H45.543V8.58203H41.875V14.8984C41.875 15.4062 42.0156 15.7812 42.2969 16.0234C42.5859 16.2656 42.9648 16.3867 43.4336 16.3867ZM61.3633 9.37891H68.1602V18.2617C67.0586 18.6211 66.0195 18.8711 65.043 19.0117C64.0742 19.1602 63.082 19.2344 62.0664 19.2344C59.4805 19.2344 57.5039 18.4766 56.1367 16.9609C54.7773 15.4375 54.0977 13.2539 54.0977 10.4102C54.0977 7.64453 54.8867 5.48828 56.4648 3.94141C58.0508 2.39453 60.2461 1.62109 63.0508 1.62109C64.8086 1.62109 66.5039 1.97266 68.1367 2.67578L66.9297 5.58203C65.6797 4.95703 64.3789 4.64453 63.0273 4.64453C61.457 4.64453 60.1992 5.17188 59.2539 6.22656C58.3086 7.28125 57.8359 8.69922 57.8359 10.4805C57.8359 12.3398 58.2148 13.7617 58.9727 14.7461C59.7383 15.7227 60.8477 16.2109 62.3008 16.2109C63.0586 16.2109 63.8281 16.1328 64.6094 15.9766V12.4023H61.3633V9.37891ZM80.2891 19L79.5977 17.2188H79.5039C78.9023 17.9766 78.2812 18.5039 77.6406 18.8008C77.0078 19.0898 76.1797 19.2344 75.1562 19.2344C73.8984 19.2344 72.9062 18.875 72.1797 18.1562C71.4609 17.4375 71.1016 16.4141 71.1016 15.0859C71.1016 13.6953 71.5859 12.6719 72.5547 12.0156C73.5312 11.3516 75 10.9844 76.9609 10.9141L79.2344 10.8438V10.2695C79.2344 8.94141 78.5547 8.27734 77.1953 8.27734C76.1484 8.27734 74.918 8.59375 73.5039 9.22656L72.3203 6.8125C73.8281 6.02344 75.5 5.62891 77.3359 5.62891C79.0938 5.62891 80.4414 6.01172 81.3789 6.77734C82.3164 7.54297 82.7852 8.70703 82.7852 10.2695V19H80.2891ZM79.2344 12.9297L77.8516 12.9766C76.8125 13.0078 76.0391 13.1953 75.5312 13.5391C75.0234 13.8828 74.7695 14.4062 74.7695 15.1094C74.7695 16.1172 75.3477 16.6211 76.5039 16.6211C77.332 16.6211 77.9922 16.3828 78.4844 15.9062C78.9844 15.4297 79.2344 14.7969 79.2344 14.0078V12.9297ZM98.207 19H94.6328V11.3477C94.6328 10.4023 94.4727 9.69531 94.1523 9.22656C93.8398 8.75 93.3438 8.51172 92.6641 8.51172C91.75 8.51172 91.0859 8.84766 90.6719 9.51953C90.2578 10.1914 90.0508 11.2969 90.0508 12.8359V19H86.4766V5.89844H89.207L89.6875 7.57422H89.8867C90.2383 6.97266 90.7461 6.50391 91.4102 6.16797C92.0742 5.82422 92.8359 5.65234 93.6953 5.65234C95.6562 5.65234 96.9844 6.29297 97.6797 7.57422H97.9961C98.3477 6.96484 98.8633 6.49219 99.543 6.15625C100.23 5.82031 101.004 5.65234 101.863 5.65234C103.348 5.65234 104.469 6.03516 105.227 6.80078C105.992 7.55859 106.375 8.77734 106.375 10.457V19H102.789V11.3477C102.789 10.4023 102.629 9.69531 102.309 9.22656C101.996 8.75 101.5 8.51172 100.82 8.51172C99.9453 8.51172 99.2891 8.82422 98.8516 9.44922C98.4219 10.0742 98.207 11.0664 98.207 12.4258V19ZM115.48 8.19531C114.723 8.19531 114.129 8.4375 113.699 8.92188C113.27 9.39844 113.023 10.0781 112.961 10.9609H117.977C117.961 10.0781 117.73 9.39844 117.285 8.92188C116.84 8.4375 116.238 8.19531 115.48 8.19531ZM115.984 19.2344C113.875 19.2344 112.227 18.6523 111.039 17.4883C109.852 16.3242 109.258 14.6758 109.258 12.543C109.258 10.3477 109.805 8.65234 110.898 7.45703C112 6.25391 113.52 5.65234 115.457 5.65234C117.309 5.65234 118.75 6.17969 119.781 7.23438C120.812 8.28906 121.328 9.74609 121.328 11.6055V13.3398H112.879C112.918 14.3555 113.219 15.1484 113.781 15.7188C114.344 16.2891 115.133 16.5742 116.148 16.5742C116.938 16.5742 117.684 16.4922 118.387 16.3281C119.09 16.1641 119.824 15.9023 120.59 15.543V18.3086C119.965 18.6211 119.297 18.8516 118.586 19C117.875 19.1562 117.008 19.2344 115.984 19.2344ZM133.375 15.1094C133.375 16.4531 132.906 17.4766 131.969 18.1797C131.039 18.8828 129.645 19.2344 127.785 19.2344C126.832 19.2344 126.02 19.168 125.348 19.0352C124.676 18.9102 124.047 18.7227 123.461 18.4727V15.5195C124.125 15.832 124.871 16.0938 125.699 16.3047C126.535 16.5156 127.27 16.6211 127.902 16.6211C129.199 16.6211 129.848 16.2461 129.848 15.4961C129.848 15.2148 129.762 14.9883 129.59 14.8164C129.418 14.6367 129.121 14.4375 128.699 14.2188C128.277 13.9922 127.715 13.7305 127.012 13.4336C126.004 13.0117 125.262 12.6211 124.785 12.2617C124.316 11.9023 123.973 11.4922 123.754 11.0312C123.543 10.5625 123.438 9.98828 123.438 9.30859C123.438 8.14453 123.887 7.24609 124.785 6.61328C125.691 5.97266 126.973 5.65234 128.629 5.65234C130.207 5.65234 131.742 5.99609 133.234 6.68359L132.156 9.26172C131.5 8.98047 130.887 8.75 130.316 8.57031C129.746 8.39062 129.164 8.30078 128.57 8.30078C127.516 8.30078 126.988 8.58594 126.988 9.15625C126.988 9.47656 127.156 9.75391 127.492 9.98828C127.836 10.2227 128.582 10.5703 129.73 11.0312C130.754 11.4453 131.504 11.832 131.98 12.1914C132.457 12.5508 132.809 12.9648 133.035 13.4336C133.262 13.9023 133.375 14.4609 133.375 15.1094Z" fill="white"/>
</svg>
